<?xml version="1.0" encoding="UTF-8"?>
<svg id="Layer_1" xmlns="http://www.w3.org/2000/svg" version="1.1" viewBox="0 0 635.43 119.57">
  <!-- Generator: Adobe Illustrator 29.3.1, SVG Export Plug-In . SVG Version: 2.1.0 Build 151)  -->
  <defs>
    <style>
      .st0 {
        fill: #fff;
      }
    </style>
  </defs>
  <path class="st0" d="M629.39,32.66c-16.25-35.88-71.07-44.5-96.22-13.8l12.35,20.68,6.94-8.04c36.21-32.06,79.28,22.12,49.2,54.71-13.4,14.52-37.5,14.59-50.63-.18-11.31-12.73-12.59-30.21-18.54-45.46-26.24-67.24-122.25-45.91-115.47,27.47,4.53,49.03,69.59,68.22,101.84,32.87l-12.36-21.35-6.45,7.53c-60.18,44.82-84.81-70.5-19.5-64.58,35.93,3.26,30.71,60.83,56.45,82.55,48.75,41.15,119.63-12.25,92.4-72.4Z"/>
  <path class="st0" d="M344,72.55h28.5c.21,0,3.19.84,3.97,1.05.86.23,2.14-.69,1.51,1.43-2.9,9.79-15.2,20.39-25.48,21.53-28.43,3.13-44.06-23.44-36.76-48.76,8.64-29.97,46.59-33.88,61.86-7.33l19.33-10.99c-3.14-12.86-22.22-24.83-34.71-27.64-64.64-14.54-98.27,67.87-50.7,105.7,20.05,15.94,52.24,15.72,70.47-2.98v13h20.01V52.55h-58v20Z"/>
  <polygon class="st0" points="197 117.55 283 117.55 283 96.55 220 96.55 220 69.55 271 69.55 271 48.55 220 48.55 220 23.55 283 23.55 283 2.55 197 2.55 197 117.55"/>
  <polygon class="st0" points="0 117.55 86 117.55 86 96.55 23 96.55 23 69.55 74 69.55 74 48.55 23 48.55 23 23.55 86 23.55 86 2.55 0 2.55 0 117.55"/>
  <polygon class="st0" points="125 2.55 102 2.55 102 117.55 185 117.55 185 96.55 125.99 95.55 125 2.55"/>
</svg>